<svg width="11606" height="3990" xmlns="http://www.w3.org/2000/svg" style="vector-effect: non-scaling-stroke;" stroke="null">

 <g stroke="null">
  <title stroke="null">background</title>
  <rect stroke="null" fill="none" id="canvas_background" height="3992" width="11608" y="-1" x="-1"/>
 </g>
 <g stroke="null">
  <title stroke="null">Layer 1</title>
  <path stroke="null" id="svg_1" d="m3811.152987,954.016435l-444.520537,1065.24625l186.826124,-1065.24625l-486.390423,0l-309.237588,2264.426606l525.05496,0l1027.550836,-2264.426606l-499.283372,0zm708.604185,1308.201154l421.975764,0l122.404309,-401.802318l-421.975764,0l151.395557,-498.363003l431.634743,0l125.623969,-408.035833l-921.251981,0l-689.329156,2264.433524l905.153682,0l161.061691,-429.835842l-447.754506,0l161.061691,-526.396528zm-2750.211906,1420.010085c-252.943626,0 -491.083972,-61.961561 -699.424578,-171.217586l-124.171545,248.206001c245.867529,127.147115 526.135334,199.133497 823.596122,199.133497c562.245607,0 1062.938475,-257.296833 1386.056374,-657.964527l-383.854992,0c-263.876159,237.032719 -615.691959,381.842614 -1002.201382,381.842614zm311.913483,-858.364098l0,233.967849l595.300781,-441.943114l-576.097299,-523.67758l0,226.544362l-614.525727,0l614.525727,-1411.24442l0,1039.85557l497.594839,455.122745l12.363493,-2397.488988l-544.516014,0l-1989.449233,3972.506751l660.602636,12.51546l533.812434,-1166.158635l810.388363,0zm-1599.240779,127.755938c-124.006985,-211.918777 -194.889583,-457.378157 -194.889583,-719.040527c0,-728.788611 549.939352,-1331.903734 1266.091851,-1434.2344l145.22812,-289.993387c-941.643159,36.418675 -1693.648358,794.389271 -1693.648358,1724.234706c0,373.194563 121.13791,718.722278 327.031574,1001.043114l150.186396,-282.009506zm2115.066047,266.830446l0,-427.787983l-516.426271,427.787983l516.426271,0zm7343.571705,-1074.593064c119.18465,0 186.826124,-68.527161 206.151237,-133.934106l235.142485,-769.344514c45.096701,-149.507517 -22.544773,-286.554922 -231.922825,-286.554922l-885.821414,0l-689.33631,2264.426606l486.397578,0l293.12498,-965.572265l161.061691,0c57.982495,0 64.421814,40.493637 51.536021,77.873976l-270.573052,887.705208l486.390423,0l251.247938,-825.411562c51.557485,-161.974549 -19.310804,-236.728307 -93.398752,-249.18842zm-77.300454,-731.964175l-128.850784,420.489028c-22.544773,68.527161 -64.421814,87.213872 -112.74533,87.213872l-167.493856,0l183.606464,-601.150286l151.388402,0c74.095103,0 93.420217,34.260122 74.095103,93.447387zm-3662.384446,-457.876285l-267.353392,875.245095l-16.105454,-875.245095l-415.536444,0l-689.33631,2264.426606l457.413485,0l280.239186,-903.285538l41.877041,903.285538l389.764856,0l689.329156,-2264.426606l-470.292124,0zm4854.159395,408.035833l425.195423,0l125.623969,-408.035833l-750.524155,0c-115.96499,0 -231.922825,31.146823 -286.68566,190.001154l-267.353392,878.358394c-48.316361,165.080929 0,274.094809 202.931578,274.094809l257.694413,0c28.998402,0 28.998402,12.460113 22.544773,31.153741l-112.738175,383.108689c-19.325113,56.067049 -32.210907,77.873976 -122.404309,77.873976l-405.87031,0l-132.063289,429.835842l795.628011,0c99.852381,0 206.151237,-46.720234 231.922825,-137.054323l267.353392,-878.358394c67.641474,-221.147977 -41.877041,-314.588446 -215.817371,-314.588446l-260.914072,0l138.502608,-460.982665c16.105454,-49.833533 51.543175,-65.406944 86.973742,-65.406944zm-3855.628425,498.363003l-122.404309,401.802318l99.852381,0l-177.15999,579.343359l-164.281351,0c-64.428969,0 -93.420217,-24.920226 -74.087949,-90.32717l402.643495,-1320.661267c16.105454,-56.067049 41.884196,-68.527161 93.420217,-68.527161l473.511784,0l125.631124,-408.035833l-776.310053,0c-154.615217,0 -260.914072,43.606936 -312.457248,211.801163l-496.056557,1632.136415c-90.186247,299.015035 93.413062,420.489028 312.457248,420.489028l299.564299,0l-51.536021,177.541042l541.153258,-264.754913l386.538042,-1270.827734l-560.478372,0l0,0.020755zm1082.292207,401.802318l421.975764,0l122.404309,-401.802318l-421.975764,0l151.395557,-498.363003l431.634743,0l125.623969,-408.035833l-921.251981,0l-689.33631,2264.426606l905.153682,0l161.061691,-429.835842l-447.747351,0l161.061691,-526.389609z"/>
 </g>
</svg>